<svg viewBox="0 0 134 20" fill="none" xmlns="http://www.w3.org/2000/svg">
<g id="Logo">
<path id="Vector" d="M7.39377 14.6862L7.02477 15.5346C6.75326 16.1551 5.89376 16.1551 5.62376 15.5346L5.25475 14.6862C4.60664 13.185 3.41902 11.9811 1.92623 11.312L0.786217 10.8054C0.648513 10.7417 0.53192 10.64 0.450207 10.5122C0.368494 10.3845 0.325073 10.236 0.325073 10.0844C0.325073 9.93275 0.368494 9.7843 0.450207 9.65654C0.53192 9.52878 0.648513 9.42705 0.786217 9.36338L1.86322 8.88371C3.39355 8.19559 4.60151 6.94718 5.23825 5.39565L5.61775 4.48129C5.67349 4.33942 5.77071 4.21762 5.89673 4.13177C6.02276 4.04592 6.17174 4 6.32426 4C6.47678 4 6.62576 4.04592 6.75179 4.13177C6.87781 4.21762 6.97503 4.33942 7.03077 4.48129L7.41027 5.39715C8.04769 6.94839 9.25618 8.19626 10.7868 8.88371L11.8623 9.36188C12.0004 9.42537 12.1174 9.52711 12.1995 9.65503C12.2815 9.78296 12.3251 9.9317 12.3251 10.0836C12.3251 10.2356 12.2815 10.3843 12.1995 10.5122C12.1174 10.6401 12.0004 10.7419 11.8623 10.8054L10.7238 11.3135C9.23071 11.9819 8.04255 13.1853 7.39377 14.6862Z" fill="var(--fill-0, #37210D)"/>
<g id="Team Human">
<path d="M30.8211 3.75195L30.9811 7.12795H30.2931C30.2504 6.44529 30.1277 5.91729 29.9251 5.54395C29.7224 5.17062 29.4291 4.90929 29.0451 4.75995C28.6717 4.61062 28.1864 4.53595 27.5891 4.53595C27.0557 4.53595 26.6504 4.55195 26.3731 4.58395C26.1064 4.60529 25.9304 4.65329 25.8451 4.72795C25.7597 4.80262 25.7171 4.90395 25.7171 5.03195V13.48C25.7171 13.9386 25.7651 14.312 25.8611 14.6C25.9571 14.8773 26.1597 15.0853 26.4691 15.224C26.7784 15.352 27.2371 15.4266 27.8451 15.448V16.072H21.3651V15.448C21.9944 15.4266 22.4584 15.352 22.7571 15.224C23.0664 15.0853 23.2691 14.8773 23.3651 14.6C23.4611 14.312 23.5091 13.9386 23.5091 13.48V5.03195C23.5091 4.90395 23.4717 4.80262 23.3971 4.72795C23.3224 4.65329 23.1677 4.60529 22.9331 4.58395C22.7091 4.55195 22.3624 4.53595 21.8931 4.53595C21.4984 4.53595 21.1251 4.55729 20.7731 4.59995C20.4211 4.64262 20.1117 4.74395 19.8451 4.90395C19.5784 5.06395 19.3651 5.31995 19.2051 5.67195C19.0451 6.02395 18.9544 6.50929 18.9331 7.12795H18.3251L18.4371 3.75195H30.8211Z" fill="var(--fill-0, #37210D)"/>
<path d="M37.8369 14.056L38.3009 14.584C37.3516 15.6826 36.1676 16.232 34.7489 16.232C33.8956 16.232 33.1436 16.0506 32.4929 15.688C31.8423 15.3253 31.3356 14.824 30.9729 14.184C30.6103 13.5333 30.4289 12.7866 30.4289 11.944C30.4289 11.0586 30.6209 10.28 31.0049 9.60795C31.3889 8.92529 31.9169 8.39195 32.5889 8.00795C33.2716 7.62395 34.0556 7.43195 34.9409 7.43195C36.0396 7.43195 36.8929 7.73062 37.5009 8.32795C38.1196 8.92529 38.4289 9.76262 38.4289 10.84C38.4289 11 38.3969 11.1013 38.3329 11.144C38.2796 11.176 38.1356 11.192 37.9009 11.192H32.7169C32.6956 11.256 32.6796 11.336 32.6689 11.432C32.6583 11.528 32.6529 11.64 32.6529 11.768C32.6529 12.4826 32.7596 13.1013 32.9729 13.624C33.1969 14.1466 33.5063 14.552 33.9009 14.84C34.2956 15.1173 34.7543 15.256 35.2769 15.256C35.7249 15.256 36.1623 15.1546 36.5889 14.952C37.0156 14.7493 37.4316 14.4506 37.8369 14.056ZM32.8289 10.344H35.3569C35.7943 10.344 36.0663 10.3173 36.1729 10.264C36.2903 10.2106 36.3489 10.0933 36.3489 9.91195C36.3489 9.43195 36.2049 9.04795 35.9169 8.75995C35.6289 8.46129 35.2663 8.31195 34.8289 8.31195C34.3276 8.31195 33.8956 8.49862 33.5329 8.87195C33.1809 9.23462 32.9463 9.72529 32.8289 10.344Z" fill="var(--fill-0, #37210D)"/>
<path d="M46.2538 16.232C45.7738 16.232 45.4058 16.088 45.1498 15.8C44.9045 15.5013 44.7818 15.0746 44.7818 14.52H44.7018C44.4138 15.0533 44.0192 15.4693 43.5178 15.768C43.0165 16.0666 42.4672 16.216 41.8698 16.216C41.4005 16.216 40.9952 16.1306 40.6538 15.96C40.3232 15.7786 40.0725 15.544 39.9018 15.256C39.7312 14.9573 39.6458 14.6266 39.6458 14.264C39.6458 13.752 39.8485 13.288 40.2538 12.872C40.6698 12.456 41.3578 12.0453 42.3178 11.64L44.5898 10.664V9.99195C44.5898 9.36262 44.4672 8.89862 44.2218 8.59995C43.9872 8.30129 43.6245 8.15195 43.1338 8.15195C42.8138 8.15195 42.5738 8.23195 42.4138 8.39195C42.2645 8.54129 42.1152 8.81862 41.9658 9.22395C41.8698 9.47995 41.7418 9.68262 41.5818 9.83195C41.4218 9.97062 41.2085 10.04 40.9418 10.04C40.6538 10.04 40.4298 9.95995 40.2698 9.79995C40.1205 9.62929 40.0458 9.40529 40.0458 9.12795C40.0458 8.59462 40.3232 8.17862 40.8778 7.87995C41.4325 7.58129 42.2432 7.43195 43.3098 7.43195C44.4832 7.43195 45.3152 7.63995 45.8058 8.05595C46.2965 8.46129 46.5418 9.15995 46.5418 10.152V13.672C46.5418 14.2053 46.5898 14.5893 46.6858 14.824C46.7925 15.0586 46.9632 15.176 47.1978 15.176C47.2832 15.176 47.3792 15.16 47.4858 15.128C47.5925 15.096 47.6885 15.032 47.7738 14.936L48.0138 15.368C47.8752 15.624 47.6405 15.832 47.3098 15.992C46.9898 16.152 46.6378 16.232 46.2538 16.232ZM42.7818 14.904C43.1018 14.904 43.4005 14.8133 43.6778 14.632C43.9552 14.4506 44.1738 14.2053 44.3338 13.896C44.5045 13.5866 44.5898 13.2506 44.5898 12.888V11.448C43.8645 11.768 43.2885 12.0613 42.8618 12.328C42.4458 12.584 42.1472 12.84 41.9658 13.096C41.7845 13.3413 41.6938 13.5973 41.6938 13.864C41.6938 14.1733 41.7898 14.424 41.9818 14.616C42.1845 14.808 42.4512 14.904 42.7818 14.904Z" fill="var(--fill-0, #37210D)"/>
<path d="M52.0836 11.368V13.464C52.0836 14.0506 52.1102 14.4826 52.1636 14.76C52.2169 15.0373 52.3396 15.2186 52.5316 15.304C52.7236 15.3786 53.0276 15.432 53.4436 15.464V16.072H48.6436V15.464C49.0702 15.432 49.3796 15.3733 49.5716 15.288C49.7742 15.2026 49.9076 15.032 49.9716 14.776C50.0356 14.52 50.0676 14.1253 50.0676 13.592V11.576C50.0676 10.968 50.0569 10.4613 50.0356 10.056C50.0249 9.63995 49.9982 9.36262 49.9556 9.22395C49.8916 8.94662 49.7742 8.77062 49.6036 8.69595C49.4436 8.62129 49.1129 8.58395 48.6116 8.58395V8.03995L51.5396 7.43195L51.7476 8.88795H51.8276C52.2862 8.37595 52.7556 8.00795 53.2356 7.78395C53.7156 7.54929 54.2596 7.43195 54.8676 7.43195C55.5609 7.43195 56.1369 7.55995 56.5956 7.81595C57.0542 8.07195 57.3902 8.43462 57.6036 8.90395H57.6676C58.0622 8.44529 58.5316 8.08795 59.0756 7.83195C59.6302 7.56529 60.2116 7.43195 60.8196 7.43195C61.4062 7.43195 61.9289 7.51195 62.3876 7.67195C62.8462 7.83195 63.1982 8.06129 63.4436 8.35995C63.6462 8.59462 63.7956 8.91462 63.8916 9.31995C63.9876 9.72529 64.0356 10.2746 64.0356 10.968V13.464C64.0356 14.0506 64.0622 14.4826 64.1156 14.76C64.1796 15.0266 64.3076 15.2026 64.4996 15.288C64.6916 15.3733 64.9956 15.432 65.4116 15.464V16.072H60.6116V15.464C61.0276 15.4426 61.3369 15.3893 61.5396 15.304C61.7422 15.2186 61.8702 15.048 61.9236 14.792C61.9876 14.5253 62.0196 14.1253 62.0196 13.592V11.512C62.0196 10.3706 61.8809 9.57062 61.6036 9.11195C61.3369 8.65329 60.8676 8.42395 60.1956 8.42395C59.7902 8.42395 59.4382 8.53062 59.1396 8.74395C58.8516 8.94662 58.6169 9.21329 58.4356 9.54395C58.3502 9.69329 58.2809 9.86395 58.2276 10.056C58.1742 10.2373 58.1316 10.4346 58.0996 10.648C58.0782 10.8506 58.0676 11.0906 58.0676 11.368V13.464C58.0676 14.0506 58.0942 14.4826 58.1476 14.76C58.2009 15.0266 58.3236 15.2026 58.5156 15.288C58.7076 15.3733 59.0169 15.432 59.4436 15.464V16.072H54.6436V15.464C55.0596 15.432 55.3636 15.3733 55.5556 15.288C55.7582 15.2026 55.8862 15.032 55.9396 14.776C56.0036 14.52 56.0356 14.1253 56.0356 13.592V11.512C56.0356 10.744 55.9769 10.136 55.8596 9.68795C55.7422 9.22929 55.5502 8.90395 55.2836 8.71195C55.0169 8.51995 54.6489 8.42395 54.1796 8.42395C53.7956 8.42395 53.4542 8.52529 53.1556 8.72795C52.8676 8.91995 52.6382 9.18662 52.4676 9.52795C52.3822 9.68795 52.3076 9.85862 52.2436 10.04C52.1902 10.2213 52.1476 10.424 52.1156 10.648C52.0942 10.8613 52.0836 11.1013 52.0836 11.368Z" fill="var(--fill-0, #37210D)"/>
<path d="M70.6462 16.072V15.448C71.1369 15.4266 71.4995 15.3733 71.7342 15.288C71.9795 15.192 72.1449 15.016 72.2302 14.76C72.3155 14.504 72.3582 14.1253 72.3582 13.624V6.19995C72.3582 5.69862 72.3209 5.32529 72.2462 5.07995C72.1715 4.82395 72.0275 4.64795 71.8142 4.55195C71.6009 4.45595 71.2702 4.39729 70.8222 4.37595V3.75195H76.1342V4.37595C75.6542 4.38662 75.2969 4.44529 75.0622 4.55195C74.8382 4.64795 74.6835 4.82929 74.5982 5.09595C74.5235 5.36262 74.4862 5.76795 74.4862 6.31195V9.30395H80.5982V6.19995C80.5982 5.69862 80.5609 5.32529 80.4862 5.07995C80.4115 4.82395 80.2515 4.64795 80.0062 4.55195C79.7715 4.45595 79.4195 4.39729 78.9502 4.37595V3.75195H84.2622V4.37595C83.8249 4.38662 83.4995 4.44529 83.2862 4.55195C83.0729 4.64795 82.9289 4.82929 82.8542 5.09595C82.7795 5.36262 82.7422 5.76795 82.7422 6.31195V13.512C82.7422 14.056 82.7795 14.4666 82.8542 14.744C82.9395 15.0106 83.0995 15.192 83.3342 15.288C83.5795 15.3733 83.9475 15.4266 84.4382 15.448V16.072H78.7902V15.448C79.3022 15.4266 79.6862 15.3733 79.9422 15.288C80.2089 15.192 80.3849 15.016 80.4702 14.76C80.5555 14.504 80.5982 14.1253 80.5982 13.624V10.232H74.4862V13.512C74.4862 14.056 74.5289 14.4666 74.6142 14.744C74.6995 15.0106 74.8702 15.192 75.1262 15.288C75.3822 15.3733 75.7715 15.4266 76.2942 15.448V16.072H70.6462Z" fill="var(--fill-0, #37210D)"/>
<path d="M92.1653 11.832V10.2C92.1653 9.61329 92.1387 9.18662 92.0853 8.91995C92.0427 8.65329 91.9253 8.47729 91.7333 8.39195C91.5413 8.30662 91.232 8.24262 90.8053 8.19995V7.59195H94.1813V12.456C94.1813 13.096 94.1867 13.6026 94.1973 13.976C94.2187 14.3493 94.2507 14.6266 94.2933 14.808C94.3467 15.0746 94.4533 15.2506 94.6133 15.336C94.784 15.4106 95.1253 15.448 95.6373 15.448V16.056L92.6293 16.248L92.4533 14.664H92.3893C92.0693 15.1653 91.6533 15.5546 91.1413 15.832C90.6293 16.0986 90.0693 16.232 89.4613 16.232C88.9493 16.232 88.4747 16.136 88.0373 15.944C87.6 15.7413 87.2427 15.4586 86.9653 15.096C86.5493 14.5413 86.3413 13.6666 86.3413 12.472V10.2C86.3413 9.76262 86.3307 9.41595 86.3093 9.15995C86.288 8.90395 86.2293 8.71729 86.1333 8.59995C86.048 8.47195 85.9147 8.38129 85.7333 8.32795C85.552 8.27462 85.3067 8.23195 84.9973 8.19995V7.59195H88.3573V12.072C88.3573 13.16 88.4907 13.96 88.7573 14.472C89.024 14.9733 89.4507 15.224 90.0373 15.224C90.7733 15.224 91.3387 14.8293 91.7333 14.04C91.8933 13.7626 92.0053 13.4586 92.0693 13.128C92.1333 12.7866 92.1653 12.3546 92.1653 11.832Z" fill="var(--fill-0, #37210D)"/>
<path d="M99.8336 11.368V13.464C99.8336 14.0506 99.8602 14.4826 99.9136 14.76C99.9669 15.0373 100.09 15.2186 100.282 15.304C100.474 15.3786 100.778 15.432 101.194 15.464V16.072H96.3936V15.464C96.8202 15.432 97.1296 15.3733 97.3216 15.288C97.5242 15.2026 97.6576 15.032 97.7216 14.776C97.7856 14.52 97.8176 14.1253 97.8176 13.592V11.576C97.8176 10.968 97.8069 10.4613 97.7856 10.056C97.7749 9.63995 97.7482 9.36262 97.7056 9.22395C97.6416 8.94662 97.5242 8.77062 97.3536 8.69595C97.1936 8.62129 96.8629 8.58395 96.3616 8.58395V8.03995L99.2896 7.43195L99.4976 8.88795H99.5776C100.036 8.37595 100.506 8.00795 100.986 7.78395C101.466 7.54929 102.01 7.43195 102.618 7.43195C103.311 7.43195 103.887 7.55995 104.346 7.81595C104.804 8.07195 105.14 8.43462 105.354 8.90395H105.418C105.812 8.44529 106.282 8.08795 106.826 7.83195C107.38 7.56529 107.962 7.43195 108.57 7.43195C109.156 7.43195 109.679 7.51195 110.138 7.67195C110.596 7.83195 110.948 8.06129 111.194 8.35995C111.396 8.59462 111.546 8.91462 111.642 9.31995C111.738 9.72529 111.786 10.2746 111.786 10.968V13.464C111.786 14.0506 111.812 14.4826 111.866 14.76C111.93 15.0266 112.058 15.2026 112.25 15.288C112.442 15.3733 112.746 15.432 113.162 15.464V16.072H108.362V15.464C108.778 15.4426 109.087 15.3893 109.29 15.304C109.492 15.2186 109.62 15.048 109.674 14.792C109.738 14.5253 109.77 14.1253 109.77 13.592V11.512C109.77 10.3706 109.631 9.57062 109.354 9.11195C109.087 8.65329 108.618 8.42395 107.946 8.42395C107.54 8.42395 107.188 8.53062 106.89 8.74395C106.602 8.94662 106.367 9.21329 106.186 9.54395C106.1 9.69329 106.031 9.86395 105.978 10.056C105.924 10.2373 105.882 10.4346 105.85 10.648C105.828 10.8506 105.818 11.0906 105.818 11.368V13.464C105.818 14.0506 105.844 14.4826 105.898 14.76C105.951 15.0266 106.074 15.2026 106.266 15.288C106.458 15.3733 106.767 15.432 107.194 15.464V16.072H102.394V15.464C102.81 15.432 103.114 15.3733 103.306 15.288C103.508 15.2026 103.636 15.032 103.69 14.776C103.754 14.52 103.786 14.1253 103.786 13.592V11.512C103.786 10.744 103.727 10.136 103.61 9.68795C103.492 9.22929 103.3 8.90395 103.034 8.71195C102.767 8.51995 102.399 8.42395 101.93 8.42395C101.546 8.42395 101.204 8.52529 100.906 8.72795C100.618 8.91995 100.388 9.18662 100.218 9.52795C100.132 9.68795 100.058 9.85862 99.9936 10.04C99.9402 10.2213 99.8976 10.424 99.8656 10.648C99.8442 10.8613 99.8336 11.1013 99.8336 11.368Z" fill="var(--fill-0, #37210D)"/>
<path d="M120.613 16.232C120.133 16.232 119.765 16.088 119.509 15.8C119.264 15.5013 119.141 15.0746 119.141 14.52H119.061C118.773 15.0533 118.379 15.4693 117.877 15.768C117.376 16.0666 116.827 16.216 116.229 16.216C115.76 16.216 115.355 16.1306 115.013 15.96C114.683 15.7786 114.432 15.544 114.261 15.256C114.091 14.9573 114.005 14.6266 114.005 14.264C114.005 13.752 114.208 13.288 114.613 12.872C115.029 12.456 115.717 12.0453 116.677 11.64L118.949 10.664V9.99195C118.949 9.36262 118.827 8.89862 118.581 8.59995C118.347 8.30129 117.984 8.15195 117.493 8.15195C117.173 8.15195 116.933 8.23195 116.773 8.39195C116.624 8.54129 116.475 8.81862 116.325 9.22395C116.229 9.47995 116.101 9.68262 115.941 9.83195C115.781 9.97062 115.568 10.04 115.301 10.04C115.013 10.04 114.789 9.95995 114.629 9.79995C114.48 9.62929 114.405 9.40529 114.405 9.12795C114.405 8.59462 114.683 8.17862 115.237 7.87995C115.792 7.58129 116.603 7.43195 117.669 7.43195C118.843 7.43195 119.675 7.63995 120.165 8.05595C120.656 8.46129 120.901 9.15995 120.901 10.152V13.672C120.901 14.2053 120.949 14.5893 121.045 14.824C121.152 15.0586 121.323 15.176 121.557 15.176C121.643 15.176 121.739 15.16 121.845 15.128C121.952 15.096 122.048 15.032 122.133 14.936L122.373 15.368C122.235 15.624 122 15.832 121.669 15.992C121.349 16.152 120.997 16.232 120.613 16.232ZM117.141 14.904C117.461 14.904 117.76 14.8133 118.037 14.632C118.315 14.4506 118.533 14.2053 118.693 13.896C118.864 13.5866 118.949 13.2506 118.949 12.888V11.448C118.224 11.768 117.648 12.0613 117.221 12.328C116.805 12.584 116.507 12.84 116.325 13.096C116.144 13.3413 116.053 13.5973 116.053 13.864C116.053 14.1733 116.149 14.424 116.341 14.616C116.544 14.808 116.811 14.904 117.141 14.904Z" fill="var(--fill-0, #37210D)"/>
<path d="M126.411 11.304V13.496C126.411 14.072 126.438 14.4933 126.491 14.76C126.544 15.0266 126.667 15.2026 126.859 15.288C127.051 15.3733 127.36 15.432 127.787 15.464V16.072H123.019V15.464C123.424 15.432 123.723 15.3786 123.915 15.304C124.118 15.2186 124.251 15.048 124.315 14.792C124.379 14.536 124.411 14.1413 124.411 13.608V11.56C124.411 10.9306 124.4 10.424 124.379 10.04C124.358 9.64529 124.331 9.37862 124.299 9.23995C124.235 8.96262 124.118 8.78129 123.947 8.69595C123.776 8.61062 123.446 8.56795 122.955 8.56795V8.03995L125.883 7.43195L126.075 8.90395H126.139C126.512 8.44529 126.95 8.08795 127.451 7.83195C127.963 7.56529 128.512 7.43195 129.099 7.43195C129.718 7.43195 130.235 7.52262 130.651 7.70395C131.067 7.87462 131.419 8.15729 131.707 8.55195C131.888 8.79729 132.038 9.11729 132.155 9.51195C132.283 9.89595 132.347 10.4293 132.347 11.112V13.496C132.347 14.072 132.374 14.4933 132.427 14.76C132.48 15.0266 132.603 15.2026 132.795 15.288C132.987 15.3733 133.28 15.432 133.675 15.464V16.072H128.955V15.464C129.371 15.4426 129.675 15.3893 129.867 15.304C130.059 15.2186 130.187 15.048 130.251 14.792C130.315 14.5253 130.347 14.1306 130.347 13.608V11.448C130.347 10.328 130.208 9.54395 129.931 9.09595C129.654 8.63729 129.174 8.40795 128.491 8.40795C128.107 8.40795 127.766 8.51462 127.467 8.72795C127.179 8.94129 126.939 9.23462 126.747 9.60795C126.672 9.73595 126.608 9.88529 126.555 10.056C126.512 10.216 126.475 10.4026 126.443 10.616C126.422 10.8186 126.411 11.048 126.411 11.304Z" fill="var(--fill-0, #37210D)"/>
</g>
</g>
</svg>
